<svg width="68" height="68" viewBox="0 0 68 68" fill="none" xmlns="http://www.w3.org/2000/svg">
<path fill-rule="evenodd" clip-rule="evenodd" d="M39.0405 5.70884C39.0405 3.41889 37.1841 1.5625 34.8941 1.5625C32.6042 1.5625 30.7478 3.41889 30.7478 5.70884V31.1327H5.32603C3.03607 31.1327 1.17969 32.9891 1.17969 35.279C1.17969 37.5689 3.03607 39.4253 5.32603 39.4253H30.7478V63.7576C30.7478 66.0475 32.6042 67.9039 34.8941 67.9039C37.1841 67.9039 39.0405 66.0475 39.0405 63.7576V39.4253H63.3749C65.6648 39.4253 67.5212 37.5689 67.5212 35.279C67.5212 32.9891 65.6648 31.1327 63.3749 31.1327H39.0405V5.70884Z" fill="white"/>
</svg>
